<?xml version="1.0" encoding="UTF-8"?>
<svg width="390" height="844" viewBox="0 0 390 844" fill="none" xmlns="http://www.w3.org/2000/svg">
  <defs>
    <linearGradient id="bgGlow" x1="30" y1="20" x2="330" y2="844" gradientUnits="userSpaceOnUse">
      <stop offset="0" stop-color="#F9F5E9"/>
      <stop offset="0.52" stop-color="#EEF7EE"/>
      <stop offset="1" stop-color="#E7F0F6"/>
    </linearGradient>
    <linearGradient id="heroGreen" x1="42" y1="96" x2="340" y2="240" gradientUnits="userSpaceOnUse">
      <stop offset="0" stop-color="#E7F6E7"/>
      <stop offset="1" stop-color="#D7E9F4"/>
    </linearGradient>
    <filter id="softShadow" x="-20%" y="-20%" width="140%" height="160%">
      <feDropShadow dx="0" dy="16" stdDeviation="18" flood-color="rgba(48, 70, 54, 0.10)"/>
    </filter>
  </defs>
  <rect width="390" height="844" rx="38" fill="url(#bgGlow)"/>
  <circle cx="322" cy="84" r="72" fill="#E8F3E2"/>
  <circle cx="74" cy="742" r="92" fill="#F2E7D8" opacity="0.75"/>
  <rect x="18" y="16" width="354" height="812" rx="34" fill="#fffdf8" opacity="0.72"/>
  <text x="34" y="48" class="status">9:41</text>
  <text x="312" y="48" class="status">5G 93%</text>
  <text x="34" y="84" class="navTitle">计划详情</text>
  <text x="34" y="108" class="navSub">按阶段看推进，用任务驱动总进度</text>
  
          <rect x="34" y="138" width="322" height="152" rx="30" fill="url(#heroGreen)" filter="url(#softShadow)"/>
          <text x="58" y="170" class="eyebrow">AI 创作者陪跑营</text>
          <text x="58" y="198" class="headline">当前阶段：验证转化话术</text>
          <text x="58" y="236" class="bodyStrong">总进度 68% · 已完成任务权重 170 / 250</text>
          <rect x="58" y="250" width="250" height="10" rx="999" fill="#FFFFFF" />
          <rect x="58" y="250" width="170" height="10" rx="999" fill="#2f6a52" />

          <rect x="34" y="308" width="322" height="78" rx="28" fill="#FFFDF8" stroke="#d9e3d4" />
          <text x="58" y="340" class="eyebrow">阶段切换</text>
          <rect x="58" y="352" width="112" height="22" rx="11" fill="#203229" />
          <text x="87" y="367" class="chip" fill="#fff">阶段 1 已完成</text>
          <rect x="180" y="352" width="92" height="22" rx="11" fill="#DCEEDD" />
          <rect x="280" y="352" width="52" height="22" rx="11" fill="#EDE7F9" />
          <text x="198" y="367" class="chip">当前推进</text>
          <text x="298" y="367" class="chip">阶段 3</text>

          <rect x="34" y="402" width="322" height="182" rx="28" fill="#FFFDF8" stroke="#d9e3d4" />
          <text x="58" y="434" class="title">当前阶段任务</text>
          <rect x="58" y="452" width="274" height="42" rx="18" fill="#EAF4EE" />
          <text x="72" y="478" class="bodyStrong">doing · 私信模版 A/B 测试</text>
          <text x="258" y="478" class="caption">权重 20</text>
          <rect x="58" y="504" width="274" height="42" rx="18" fill="#F6F3EA" />
          <text x="72" y="530" class="bodyStrong">todo · 复盘 10 条咨询截图</text>
          <text x="258" y="530" class="caption">权重 15</text>
          <rect x="58" y="556" width="274" height="16" rx="8" fill="#EEF2F4" />
          <rect x="58" y="556" width="162" height="16" rx="8" fill="#87b8d8" />
          <text x="58" y="578" class="progressLabel">阶段进度 59%</text>

          <rect x="34" y="602" width="322" height="200" rx="28" fill="#FFFDF8" stroke="#d9e3d4" />
          <text x="58" y="634" class="title">新建任务</text>
          <rect x="58" y="648" width="274" height="38" rx="18" fill="#F6F6F0" />
          <rect x="58" y="694" width="132" height="38" rx="18" fill="#F6F6F0" />
          <rect x="200" y="694" width="132" height="38" rx="18" fill="#F6F6F0" />
          <rect x="58" y="740" width="274" height="46" rx="23" fill="#2f6a52" />
          <text x="164" y="769" class="buttonText" fill="#fff">添加任务</text>
        
  <style>
    .status { font: 600 14px "Avenir Next", "PingFang SC", "Noto Sans SC", sans-serif; fill: #203229; }
    .navTitle { font: 700 24px "Avenir Next", "PingFang SC", "Noto Sans SC", sans-serif; fill: #203229; }
    .navSub { font: 500 13px "Avenir Next", "PingFang SC", "Noto Sans SC", sans-serif; fill: #6b786e; }
    .eyebrow { font: 700 11px "Avenir Next", "PingFang SC", "Noto Sans SC", sans-serif; letter-spacing: 1.3px; fill: #2f6a52; }
    .headline { font: 700 22px "Avenir Next", "PingFang SC", "Noto Sans SC", sans-serif; fill: #203229; }
    .title { font: 700 17px "Avenir Next", "PingFang SC", "Noto Sans SC", sans-serif; fill: #203229; }
    .body { font: 500 13px "Avenir Next", "PingFang SC", "Noto Sans SC", sans-serif; fill: #6b786e; }
    .bodyStrong { font: 600 13px "Avenir Next", "PingFang SC", "Noto Sans SC", sans-serif; fill: #203229; }
    .metric { font: 700 30px "Avenir Next", "PingFang SC", "Noto Sans SC", sans-serif; fill: #203229; }
    .caption { font: 600 11px "Avenir Next", "PingFang SC", "Noto Sans SC", sans-serif; fill: #6b786e; }
    .chip { font: 600 11px "Avenir Next", "PingFang SC", "Noto Sans SC", sans-serif; fill: #2f6a52; }
    .buttonText { font: 700 13px "Avenir Next", "PingFang SC", "Noto Sans SC", sans-serif; }
    .progressLabel { font: 700 12px "Avenir Next", "PingFang SC", "Noto Sans SC", sans-serif; fill: #87b8d8; }
  </style>
</svg>